<?xml version="1.0" encoding="utf-8"?><!-- Uploaded to: SVG Repo, www.svgrepo.com, Generator: SVG Repo Mixer Tools -->
<svg width="800px" height="800px" viewBox="0 0 146 146" xmlns="http://www.w3.org/2000/svg"><title>001-business</title><rect x="0.5" y="0.5" width="145" height="145" fill="none"/><polygon points="93.82 106.67 87.42 133.07 54.62 133.07 48.22 106.67 93.82 106.67" fill="#ed9180"/><polygon points="99.42 94.67 99.42 106.67 93.82 106.67 48.22 106.67 42.62 106.67 42.62 94.67 99.42 94.67" fill="#ed9180"/><path d="M98.45,61.8A12.9,12.9,0,0,1,82.93,77.32,12.9,12.9,0,0,1,98.45,61.8Z" fill="#7bd489"/><path d="M53.63,53.23a12.91,12.91,0,0,1,3.43,12.1A12.9,12.9,0,0,1,41.54,49.8,12.9,12.9,0,0,1,53.63,53.23Z" fill="#7bd489"/><polyline points="71.42 55.07 71.42 79.87 71.42 94.27" fill="none" stroke="#515f76" stroke-linecap="round" stroke-miterlimit="10" stroke-width="2.4"/><path d="M45,61.89a12.9,12.9,0,0,0,12.09,3.43A12.9,12.9,0,0,0,41.54,49.8,12.89,12.89,0,0,0,45,61.89Z" fill="none" stroke="#515f76" stroke-linecap="round" stroke-miterlimit="10" stroke-width="2.4"/><line x1="57.02" y1="65.47" x2="71.42" y2="79.87" fill="none" stroke="#515f76" stroke-linecap="round" stroke-miterlimit="10" stroke-width="2.4"/><line x1="71.82" y1="88.27" x2="82.62" y2="77.47" fill="none" stroke="#515f76" stroke-linecap="round" stroke-miterlimit="10" stroke-width="2.4"/><path d="M88.77,68.43a12.87,12.87,0,0,1,10.8-3.66,13,13,0,0,0-.31-2.17A12.9,12.9,0,0,0,83.73,78.12a13,13,0,0,0,1.29.23A12.84,12.84,0,0,1,88.77,68.43Z" fill="#a4e0b3" opacity="0.8"/><path d="M86.37,65.23a12.89,12.89,0,0,0-3.43,12.1A12.9,12.9,0,0,0,98.45,61.8,12.9,12.9,0,0,0,86.37,65.23Z" fill="none" stroke="#515f76" stroke-linecap="round" stroke-miterlimit="10" stroke-width="2.4"/><polygon points="49.02 107 55.42 134 59.42 134 53.02 107 49.02 107" fill="#eeb8a9" opacity="0.8"/><path d="M93.82,106.67l-6.25,25.79a0.8,0.8,0,0,1-.78.61H55.25a0.8,0.8,0,0,1-.78-0.61l-6.25-25.79" fill="none" stroke="#515f76" stroke-linecap="round" stroke-miterlimit="10" stroke-width="2.4"/><path d="M47,99.8L99,98.27v-3.2H42.22v12h2.4V102.2A2.4,2.4,0,0,1,47,99.8Z" fill="#eeb8a9" opacity="0.8"/><path d="M48.22,106.67h-4.8a0.8,0.8,0,0,1-.8-0.8V95.47a0.8,0.8,0,0,1,.8-0.8h55.2a0.8,0.8,0,0,1,.8.8v10.4a0.8,0.8,0,0,1-.8.8H48.22Z" fill="none" stroke="#515f76" stroke-linecap="round" stroke-miterlimit="10" stroke-width="2.4"/><line x1="100.49" y1="84.53" x2="103.69" y2="87.73" fill="none" stroke="#b8b9ba" stroke-linecap="round" stroke-miterlimit="10" stroke-width="1.6"/><line x1="103.69" y1="84.53" x2="100.49" y2="87.73" fill="none" stroke="#b8b9ba" stroke-linecap="round" stroke-miterlimit="10" stroke-width="1.6"/><circle cx="116.82" cy="91.74" r="2" fill="none" stroke="#b8b9ba" stroke-linecap="round" stroke-miterlimit="10" stroke-width="1.6"/><circle cx="109.42" cy="101.99" r="1.6" fill="#b8b9ba"/><path d="M30.29,109.3l2.33-1.22a0.08,0.08,0,0,1,.12.08l-0.44,2.59,2,1.95-2.76.4-1.24,2.5L29,113.11l-2.6-.38a0.08,0.08,0,0,1,0-.14l1.88-1.84L27.81,108Z" fill="#a8cbeb"/><circle cx="41.2" cy="119.22" r="1.6" fill="#b8b9ba"/><line x1="42" y1="24" x2="42" y2="30" fill="none" stroke="#b8b9ba" stroke-linecap="round" stroke-miterlimit="10" stroke-width="2"/><line x1="45" y1="27" x2="39" y2="27" fill="none" stroke="#b8b9ba" stroke-linecap="round" stroke-miterlimit="10" stroke-width="2"/><circle cx="48.22" cy="13.33" r="1.6" fill="#b8b9ba"/><path d="M71.82,15.75A19.32,19.32,0,1,1,52.5,35.07,19.32,19.32,0,0,1,71.82,15.75ZM86.1,35.07A14.28,14.28,0,1,0,71.82,49.35,14.28,14.28,0,0,0,86.1,35.07Z" fill="#ffffff"/><circle cx="71.82" cy="35.07" r="14.28" fill="#a8cbeb"/><circle cx="71.82" cy="35.07" r="19.32" fill="none" stroke="#515f76" stroke-miterlimit="10" stroke-width="2.4"/><path d="M72,34.79A3.45,3.45,0,0,1,75.6,38a3.67,3.67,0,0,1-7.28,0" fill="none" stroke="#515f76" stroke-linecap="round" stroke-miterlimit="10" stroke-width="2.4"/><path d="M75.6,31.57a3.67,3.67,0,0,0-7.28,0A3.45,3.45,0,0,0,72,34.79" fill="none" stroke="#515f76" stroke-linecap="round" stroke-miterlimit="10" stroke-width="2.4"/><line x1="73" y1="26" x2="73" y2="28" fill="none" stroke="#515f76" stroke-linecap="round" stroke-miterlimit="10" stroke-width="2"/><line x1="72" y1="43" x2="72" y2="44" fill="none" stroke="#515f76" stroke-linecap="round" stroke-miterlimit="10" stroke-width="2"/></svg>